<?xml version="1.0" encoding="UTF-8"?>
<svg width="90px" height="58px" viewBox="0 0 90 58" version="1.1" xmlns="http://www.w3.org/2000/svg" xmlns:xlink="http://www.w3.org/1999/xlink">
    <!-- Generator: Sketch 46.2 (44496) - http://www.bohemiancoding.com/sketch -->
    <title>Untitled</title>
    <desc>Created with Sketch.</desc>
    <defs></defs>
    <g id="Page-1" stroke="none" stroke-width="1" fill="none" fill-rule="evenodd">
        <g id="noun_1029289_cc" fill-rule="nonzero" fill="#301633">
            <path d="M13.4,8.9 L4.7,24.5 C3.7,25.9 2.9,27.4 2.3,28.9 C2.3,29 2.2,29.1 2.2,29.2 C1.3,31.5 0.8,34 0.8,36.6 C0.8,48.2 10.2,57.6 21.8,57.6 C31.3,57.6 39.3,51.3 41.9,42.6 L48,42.6 C50.6,51.3 58.6,57.6 68.1,57.6 C79.7,57.6 89.1,48.2 89.1,36.6 C89.1,34 88.6,31.5 87.7,29.2 C87.7,29.1 87.6,29 87.6,28.9 C87,27.3 86.2,25.8 85.2,24.5 L76.3,8.6 C76.3,8.5 76.2,8.5 76.2,8.4 C73.3,3.4 67.9,0.3 62.1,0.3 C55.2,0.3 49.3,4.6 46.9,10.6 L42.9,10.6 C40.5,4.6 34.6,0.3 27.7,0.3 C21.9,0.3 16.5,3.4 13.6,8.4 C13.6,8.5 13.5,8.5 13.5,8.6 L13.4,8.9 L13.4,8.9 Z M53.1,36.7 C53.1,28.4 59.8,21.7 68.1,21.7 C76.4,21.7 83.1,28.4 83.1,36.7 C83.1,45 76.4,51.7 68.1,51.7 C59.8,51.7 53.1,44.9 53.1,36.7 Z M6.9,36.7 C6.9,28.4 13.6,21.7 21.9,21.7 C30.2,21.7 36.9,28.4 36.9,36.7 C36.9,45 30.2,51.7 21.9,51.7 C13.6,51.7 6.9,44.9 6.9,36.7 Z M18.7,11.8 C18.7,11.7 18.8,11.7 18.8,11.6 C20.6,8.4 24.1,6.4 27.8,6.4 C33.5,6.4 38.1,11 38.1,16.7 C38.1,17.1 38.1,17.5 38,17.9 C38,18 38,18 38,18.1 L37.7,23 C33.8,18.5 28.2,15.7 21.8,15.7 C19.8,15.7 17.9,16 16,16.5 L18.7,11.8 L18.7,11.8 Z M45.9,16.7 C45.9,17.3 45.9,17.9 46,18.6 L46.8,30.7 L43.3,30.7 L44,18.5 C44.1,17.8 44.1,17.2 44.1,16.6 L45.9,16.6 L45.9,16.7 Z M62.2,6.3 C65.9,6.3 69.3,8.3 71.2,11.5 C71.2,11.5 71.3,11.6 71.3,11.6 C71.3,11.6 71.4,11.7 71.4,11.7 L74,16.4 C72.2,15.9 70.2,15.6 68.2,15.6 C61.9,15.6 56.2,18.4 52.3,22.9 L52,18 C52,17.9 52,17.9 52,17.8 C51.9,17.3 51.9,16.9 51.9,16.6 C51.9,11 56.5,6.3 62.2,6.3 Z" id="Shape"></path>
        </g>
    </g>
</svg>

