<svg width="54px" height="98px" viewBox="0 0 54 98" version="1.1" xmlns="http://www.w3.org/2000/svg" xmlns:xlink="http://www.w3.org/1999/xlink">
    <!-- Generator: Sketch 46.2 (44496) - http://www.bohemiancoding.com/sketch -->
    <desc>Created with Sketch.</desc>
    <defs></defs>
    <g id="Page-1" stroke="none" stroke-width="1" fill="none" fill-rule="evenodd">
        <g id="noun_972157_cc-(1)" fill-rule="nonzero" fill="#000000">
            <g id="Group">
                <ellipse id="Oval" cx="27" cy="93.8" rx="18.3" ry="4.2"></ellipse>
                <path d="M51.1,14.9 C44.4,1.6 28.2,-3.8 14.8,2.9 C1.5,9.6 -3.7,26.4 2.8,39.2 C9.3,52 23.4,79.5 23.4,79.5 C24.9,82.4 29,82.4 30.5,79.5 C30.5,79.5 47.3,46.9 51.1,39.2 C54.9,31.5 55,22.8 51.1,14.9 Z M27,41.1 C19.2,41.1 12.9,34.8 12.9,27.1 C12.9,19.3 19.2,13 27,13 C34.8,13 41.1,19.3 41.1,27.1 C41.1,34.8 34.8,41.1 27,41.1 Z" id="Shape"></path>
            </g>
        </g>
    </g>
</svg>

